<?xml version="1.0" encoding="UTF-8"?>
<!-- Generator: visioncortex VTracer 0.6.4 -->
<svg version="1.1" xmlns="http://www.w3.org/2000/svg" viewBox="0 0 3960 1117" width="3960" height="1117" preserveAspectRatio="xMidYMid meet">
<path d="M0 0 C77.22 0 154.44 0 234 0 C231.25 24.75 231.25 24.75 230 26 C229.96 27.67 229.96 29.33 230 31 C229.34 31 228.68 31 228 31 C228.02 32.14 228.05 33.27 228.07 34.45 C228.07 39 227.51 43.38 226.82 47.88 C226.63 49.15 226.63 49.15 226.44 50.45 C226.03 53.23 225.61 56 225.19 58.78 C224.9 60.71 224.61 62.65 224.32 64.59 C223.72 68.63 223.11 72.68 222.5 76.72 C221.72 81.91 220.94 87.11 220.17 92.3 C219.57 96.29 218.97 100.29 218.37 104.28 C218.09 106.19 217.8 108.11 217.51 110.03 C217.12 112.69 216.71 115.36 216.31 118.03 C216.19 118.82 216.07 119.62 215.95 120.44 C215.11 125.89 215.11 125.89 214 127 C213.96 128.67 213.96 130.33 214 132 C213.34 132 212.68 132 212 132 C212.04 133.69 212.04 133.69 212.08 135.42 C212.07 140.14 211.46 144.67 210.75 149.33 C210.55 150.68 210.55 150.68 210.34 152.05 C209.9 155 209.46 157.94 209.01 160.88 C208.7 162.94 208.39 164.99 208.08 167.05 C207.43 171.35 206.78 175.65 206.13 179.95 C205.29 185.46 204.46 190.96 203.64 196.46 C203 200.71 202.36 204.95 201.72 209.19 C201.41 211.22 201.11 213.25 200.8 215.28 C200.38 218.12 199.95 220.96 199.51 223.8 C199.33 225.04 199.33 225.04 199.14 226.32 C198.6 229.8 197.98 233.09 197 236.48 C195.77 240.79 195.12 245.08 194.49 249.52 C194.28 250.91 194.28 250.91 194.07 252.33 C193.62 255.37 193.18 258.42 192.74 261.46 C192.43 263.58 192.12 265.7 191.81 267.82 C190.99 273.39 190.18 278.95 189.37 284.52 C188.54 290.2 187.71 295.89 186.88 301.57 C185.25 312.71 183.62 323.86 182 335 C181.34 335 180.68 335 180 335 C179.96 335.78 179.92 336.55 179.88 337.35 C179.25 348.06 177.71 358.55 176.09 369.14 C175.81 371.05 175.52 372.96 175.23 374.86 C174.63 378.82 174.03 382.78 173.43 386.74 C172.65 391.83 171.88 396.92 171.12 402 C170.52 405.92 169.93 409.84 169.33 413.76 C169.05 415.64 168.77 417.52 168.48 419.4 C168.09 422 167.69 424.61 167.29 427.21 C167.17 427.99 167.06 428.77 166.94 429.57 C166.11 434.89 166.11 434.89 165 436 C164.47 439.09 163.99 442.17 163.54 445.27 C163.4 446.25 163.25 447.22 163.11 448.23 C162.8 450.35 162.49 452.47 162.18 454.6 C161.69 457.96 161.2 461.32 160.7 464.68 C159.47 473.04 158.25 481.4 157.03 489.76 C156 496.81 154.97 503.86 153.93 510.9 C153.45 514.21 152.97 517.52 152.49 520.83 C152.19 522.87 151.89 524.91 151.59 526.95 C151.46 527.87 151.33 528.79 151.19 529.73 C150.46 534.64 149.38 539.23 148 544 C147.41 547.06 146.97 550.13 146.52 553.2 C146.39 554.1 146.25 555 146.11 555.92 C145.83 557.85 145.54 559.78 145.26 561.72 C144.81 564.78 144.35 567.85 143.89 570.91 C142.92 577.42 141.96 583.93 141 590.44 C139.88 597.98 138.77 605.52 137.64 613.06 C137.19 616.07 136.75 619.08 136.31 622.09 C136.03 623.95 135.76 625.81 135.48 627.67 C135.36 628.5 135.24 629.33 135.12 630.18 C134.57 633.84 133.94 637.41 133 640.99 C131.83 645.46 131.15 649.97 130.49 654.54 C130.28 655.91 130.28 655.91 130.07 657.32 C129.63 660.33 129.18 663.34 128.74 666.34 C128.43 668.44 128.12 670.54 127.81 672.63 C126.99 678.13 126.18 683.63 125.37 689.12 C124.54 694.74 123.71 700.36 122.88 705.98 C121.25 716.98 119.62 727.99 118 739 C117.34 739 116.68 739 116 739 C116 741.64 116 744.28 116 747 C111.55 776.21 111.55 776.21 107 806 C29.78 806 -47.44 806 -127 806 C-125.88 792.62 -125.88 792.62 -124.58 787.65 C-122.87 780.66 -121.77 773.65 -120.74 766.53 C-120.54 765.19 -120.34 763.85 -120.15 762.51 C-119.74 759.73 -119.33 756.95 -118.93 754.18 C-118.41 750.62 -117.89 747.07 -117.36 743.52 C-116.96 740.76 -116.56 738.01 -116.15 735.26 C-115.87 733.31 -115.58 731.37 -115.3 729.42 C-115.12 728.24 -114.95 727.06 -114.78 725.85 C-114.63 724.81 -114.48 723.78 -114.32 722.71 C-113.92 719.79 -113.92 719.79 -114 716 C-114.78 716.83 -115.57 717.65 -116.38 718.5 C-119 721 -119 721 -121 721 C-121.32 721.81 -121.32 721.81 -121.64 722.63 C-123.51 725.89 -126.08 728.33 -128.75 730.94 C-129.26 731.45 -129.78 731.96 -130.3 732.49 C-132.81 734.97 -135.35 737.33 -138.08 739.57 C-141 741.92 -141 741.92 -143.45 744.47 C-146.41 747.4 -149.57 749.9 -152.88 752.44 C-158.28 756.61 -158.28 756.61 -163.44 761.06 C-167.48 764.63 -172.07 767.47 -176.58 770.4 C-179.3 772.17 -181.9 773.91 -184.4 775.98 C-188.03 778.8 -191.97 780.92 -196 783.12 C-196.79 783.57 -197.59 784.01 -198.41 784.46 C-202.2 786.56 -205.91 788.53 -210 790 C-210 790.66 -210 791.32 -210 792 C-214.36 794 -218.72 795.99 -223.08 797.98 C-224.56 798.66 -226.05 799.34 -227.53 800.02 C-229.66 801 -231.79 801.97 -233.93 802.94 C-234.92 803.4 -234.92 803.4 -235.93 803.87 C-238.81 805.17 -240.8 806 -244 806 C-244 806.66 -244 807.32 -244 808 C-259.02 813.15 -274.02 817.4 -289.51 820.83 C-290.73 821.1 -291.96 821.37 -293.22 821.65 C-294.86 822.01 -294.86 822.01 -296.53 822.37 C-298.93 822.76 -298.93 822.76 -300 824 C-315.8 827.22 -332.04 827.48 -348.1 827.39 C-351.63 827.37 -355.16 827.39 -358.69 827.41 C-393.75 827.44 -393.75 827.44 -406 822 C-407.59 821.56 -409.18 821.15 -410.78 820.77 C-439.93 813.67 -464.48 801.65 -488.75 784 C-489.61 783.38 -490.47 782.77 -491.36 782.13 C-492.6 781.23 -492.6 781.23 -493.86 780.31 C-494.61 779.77 -495.35 779.23 -496.12 778.68 C-498.11 776.9 -498.89 775.39 -500 773 C-501.31 772.29 -502.65 771.63 -504 771 C-505.85 769.31 -505.85 769.31 -507.62 767.44 C-510.05 764.86 -510.05 764.86 -513 763 C-513 762.34 -513 761.68 -513 761 C-513.99 760.67 -514.98 760.34 -516 760 C-516.9 758.65 -517.8 757.29 -518.66 755.9 C-520.29 753.59 -522.17 751.67 -524.12 749.62 C-528.14 745.25 -531.37 740.64 -534.5 735.62 C-534.93 734.93 -535.37 734.24 -535.81 733.53 C-537.76 730.35 -539.22 727.68 -540 724 C-540.66 724 -541.32 724 -542 724 C-556 696.64 -556 696.64 -556 691 C-556.66 691 -557.32 691 -558 691 C-564.2 673.65 -568.75 655.91 -571.8 637.74 C-571.94 636.87 -572.09 636 -572.24 635.1 C-572.36 634.33 -572.49 633.56 -572.61 632.77 C-572.84 630.98 -572.84 630.98 -574 630 C-574.39 627.31 -574.72 624.64 -575 621.94 C-575.09 621.12 -575.17 620.3 -575.26 619.45 C-578.29 590.11 -577.86 560.26 -574 531 C-573.67 530.67 -573.34 530.34 -573 530 C-572.64 528.12 -572.34 526.22 -572.05 524.32 C-571.87 523.12 -571.68 521.91 -571.49 520.67 C-571.34 519.69 -571.34 519.69 -571.19 518.7 C-568.2 499.45 -563.76 480.62 -558 462 C-557.34 462 -556.68 462 -556 462 C-555.87 461.12 -555.75 460.25 -555.62 459.34 C-552.23 441 -542 423.12 -533 407 C-532.48 406.06 -532.48 406.06 -531.95 405.1 C-530.04 401.69 -528.05 398.34 -526 395 C-525.63 394.39 -525.26 393.78 -524.88 393.16 C-519.97 385.04 -514.88 377.26 -509.09 369.74 C-507.1 367.13 -505.23 364.46 -503.38 361.75 C-500.79 358.03 -498.04 354.62 -495 351.25 C-492.98 348.98 -491.04 346.66 -489.1 344.32 C-484.4 338.68 -479.53 333.39 -474.27 328.27 C-472.21 326.21 -470.32 324.1 -468.44 321.88 C-465.31 318.22 -461.86 315.09 -458.21 311.96 C-456.63 310.56 -455.11 309.1 -453.63 307.61 C-450.73 304.73 -447.69 302.11 -444.56 299.5 C-443.74 298.81 -443.74 298.81 -442.9 298.11 C-441.81 297.18 -440.7 296.26 -439.6 295.34 C-438.09 294.08 -436.6 292.79 -435.1 291.51 C-430.8 288.03 -426.24 285.01 -421.66 281.93 C-420.97 281.47 -420.29 281 -419.58 280.52 C-418.97 280.11 -418.35 279.7 -417.71 279.27 C-415.97 278.05 -415.97 278.05 -414.58 276.53 C-412.62 274.63 -410.53 273.41 -408.18 272.04 C-407.23 271.48 -406.28 270.93 -405.31 270.36 C-404.32 269.79 -403.33 269.21 -402.31 268.62 C-400.37 267.49 -398.43 266.36 -396.49 265.23 C-395.07 264.4 -395.07 264.4 -393.63 263.56 C-391.4 262.23 -389.21 260.86 -387.04 259.45 C-381.96 256.25 -376.54 253.75 -371.12 251.19 C-370.08 250.69 -369.04 250.18 -367.96 249.67 C-360.26 246 -360.26 246 -358 246 C-358 245.34 -358 244.68 -358 244 C-329.51 233.61 -329.51 233.61 -316.22 229.94 C-313.11 229.1 -313.11 229.1 -310.67 228.02 C-305.6 226.09 -300.2 225.44 -294.88 224.5 C-293.72 224.29 -292.57 224.07 -291.38 223.86 C-273.7 220.71 -256.26 219.62 -238.31 219.69 C-237.3 219.69 -236.29 219.69 -235.25 219.69 C-212.07 219.76 -190.57 222.63 -168 228 C-168 228.66 -168 229.32 -168 230 C-166.71 230.26 -165.42 230.52 -164.09 230.79 C-159.1 231.9 -154.4 233.51 -149.62 235.31 C-148.39 235.77 -148.39 235.77 -147.13 236.24 C-140.96 238.57 -134.93 241.11 -129 244 C-129 244.66 -129 245.32 -129 246 C-127.92 246.41 -127.92 246.41 -126.82 246.83 C-113.43 252.37 -102.38 261.29 -91.54 270.68 C-89.99 272.01 -88.41 273.3 -86.82 274.59 C-84.46 276.61 -82.52 278.55 -80.56 280.94 C-77.84 284.15 -75.01 286.82 -71.68 289.38 C-69.33 291.64 -67.78 294.28 -66 297 C-64.37 299.14 -62.73 301.26 -61.06 303.38 C-57.39 308.09 -54.04 312.84 -51 318 C-49.2 310.47 -48.03 302.91 -46.94 295.25 C-46.59 292.86 -46.25 290.47 -45.9 288.08 C-45.68 286.51 -45.68 286.51 -45.45 284.9 C-44.88 281.2 -44.12 277.55 -43.34 273.89 C-41.42 264.58 -39.91 255.25 -38.55 245.84 C-38.18 243.24 -37.8 240.63 -37.41 238.03 C-36.47 231.56 -35.53 225.1 -34.59 218.64 C-33.8 213.15 -33 207.66 -32.19 202.17 C-31.82 199.63 -31.46 197.09 -31.09 194.55 C-30.09 187.69 -29.04 180.89 -27.52 174.11 C-25.7 165.96 -24.51 157.73 -23.31 149.47 C-22.89 146.61 -22.47 143.75 -22.04 140.89 C-21.3 135.87 -20.56 130.85 -19.83 125.83 C-18.64 117.74 -17.45 109.66 -16.26 101.58 C-15.84 98.77 -15.43 95.95 -15.02 93.13 C-14.77 91.42 -14.51 89.7 -14.26 87.99 C-14.09 86.81 -14.09 86.81 -13.92 85.61 C-13.11 80.23 -13.11 80.23 -12 78 C-7.68 52.05 -3.97 26 0 0 Z M-223 375 C-224.46 375.34 -225.92 375.69 -227.38 376.03 C-241.34 379.38 -256.07 383.76 -267.77 392.38 C-270.16 394.11 -272.64 395.66 -275.14 397.22 C-281.68 401.29 -287.39 405.71 -293 411 C-294.37 412.19 -295.75 413.38 -297.12 414.56 C-302.83 419.51 -302.83 419.51 -308 425 C-308 425.66 -308 426.32 -308 427 C-308.66 427 -309.32 427 -310 427 C-318.94 435.43 -325.58 446.64 -332 457 C-332.49 457.74 -332.98 458.48 -333.49 459.25 C-338.43 466.93 -341.7 475.34 -345.1 483.79 C-345.85 485.63 -346.64 487.45 -347.45 489.27 C-362.2 523.89 -362.49 568.86 -350 604 C-349.67 604.99 -349.34 605.98 -349 607 C-348.34 607 -347.68 607 -347 607 C-346.9 607.69 -346.8 608.37 -346.7 609.08 C-343.63 621.97 -334.53 633.98 -325.11 642.89 C-323 645 -323 645 -321.14 647.48 C-318.59 650.48 -315.7 652.41 -312.38 654.44 C-311.75 654.83 -311.13 655.21 -310.48 655.61 C-309.23 656.39 -307.97 657.17 -306.72 657.94 C-305.26 658.84 -303.82 659.79 -302.39 660.74 C-279.59 675.56 -247.22 676.02 -221.46 670.57 C-208.41 667.74 -208.41 667.74 -196 663 C-196 662.34 -196 661.68 -196 661 C-195.27 660.88 -194.54 660.75 -193.79 660.62 C-180.72 657.7 -168.21 649.35 -158 641 C-156.07 639.61 -154.13 638.24 -152.19 636.88 C-148.33 634.08 -144.96 631.17 -141.69 627.72 C-139.82 625.82 -137.84 624.1 -135.81 622.38 C-132.84 619.81 -130.24 617.26 -128 614 C-128 613.34 -128 612.68 -128 612 C-127.15 611.66 -127.15 611.66 -126.28 611.32 C-119.18 607.21 -113.96 598.03 -110 591 C-110 590.34 -110 589.68 -110 589 C-109.34 589 -108.68 589 -108 589 C-106.32 586.01 -104.66 583 -103 580 C-102.41 578.94 -101.82 577.88 -101.21 576.79 C-95.35 566.95 -95.35 566.95 -93 556 C-92.34 556 -91.68 556 -91 556 C-85.37 539.08 -80.86 522.48 -80.83 504.52 C-80.83 503.74 -80.83 502.97 -80.82 502.17 C-80.82 500.54 -80.81 498.91 -80.81 497.28 C-80.81 494.84 -80.79 492.39 -80.78 489.94 C-80.71 471.06 -82.99 450.94 -92 434 C-92.66 433.67 -93.32 433.34 -94 433 C-94.25 432.22 -94.49 431.43 -94.75 430.62 C-102.16 409.14 -122.21 391.63 -142.12 381.75 C-149.79 378.38 -157.85 376.5 -165.96 374.53 C-167.72 374.07 -169.45 373.5 -171.18 372.9 C-187.04 367.85 -207.31 370.96 -223 375 Z " fill="#FFFFFF" transform="translate(3435,145)"/>
<path d="M0 0 C0 0.66 0 1.32 0 2 C0.94 2.09 1.88 2.18 2.86 2.27 C7.94 3 12.55 4.89 17.31 6.75 C18.2 7.09 19.08 7.42 20 7.77 C28.7 11.12 36.89 15.02 44.57 20.33 C46.38 21.57 48.21 22.79 50.05 23.98 C51.11 24.67 52.16 25.36 53.25 26.06 C54.22 26.69 55.2 27.32 56.2 27.97 C59.12 30.09 61.49 32.41 64 35 C65.53 36.36 67.08 37.72 68.62 39.06 C77.07 46.65 84.56 54.6 90.4 64.39 C91.92 66.87 93.59 69.08 95.38 71.38 C100.61 78.7 103.65 87.34 107.03 95.64 C107.88 97.7 108.75 99.76 109.65 101.81 C120.52 127.47 122.13 156.32 122.25 183.81 C122.26 184.58 122.26 185.34 122.27 186.13 C122.39 209.02 119.74 231.56 116.49 254.18 C115.93 258.08 115.38 261.97 114.83 265.87 C114.48 268.35 114.13 270.83 113.78 273.31 C113.61 274.48 113.45 275.64 113.28 276.84 C113.13 277.9 112.97 278.96 112.82 280.05 C112.68 280.99 112.55 281.92 112.41 282.88 C112 285 112 285 111 286 C111 286.83 111 287.65 111 288.5 C111 289.33 111 290.15 111 291 C110.67 291.33 110.34 291.66 110 292 C109.47 295.09 108.99 298.17 108.54 301.27 C108.4 302.25 108.25 303.22 108.11 304.23 C107.8 306.35 107.49 308.47 107.18 310.6 C106.69 313.96 106.2 317.32 105.7 320.68 C104.47 329.04 103.25 337.4 102.03 345.76 C101 352.81 99.97 359.86 98.93 366.9 C98.45 370.21 97.97 373.52 97.49 376.83 C97.19 378.87 96.89 380.91 96.59 382.95 C96.46 383.87 96.33 384.79 96.19 385.73 C95.46 390.64 94.38 395.23 93 400 C92.44 402.97 92.01 405.96 91.6 408.95 C91.41 410.25 91.41 410.25 91.22 411.58 C90.95 413.45 90.68 415.32 90.41 417.19 C89.99 420.15 89.57 423.11 89.14 426.07 C88.23 432.34 87.33 438.6 86.44 444.88 C85.39 452.16 84.35 459.45 83.3 466.73 C82.87 469.65 82.46 472.58 82.04 475.5 C81.79 477.27 81.53 479.05 81.28 480.83 C81.16 481.65 81.05 482.46 80.93 483.31 C80.11 488.89 80.11 488.89 79 490 C79 490.83 79 491.65 79 492.5 C79 493.33 79 494.15 79 495 C78.67 495.33 78.34 495.66 78 496 C77.55 498.51 77.16 501.01 76.8 503.53 C76.69 504.32 76.57 505.11 76.45 505.92 C76.2 507.64 75.95 509.36 75.7 511.08 C75.31 513.79 74.91 516.5 74.52 519.22 C73.67 524.98 72.84 530.74 72 536.5 C71.03 543.17 70.06 549.85 69.08 556.52 C68.69 559.2 68.3 561.88 67.92 564.56 C67.68 566.2 67.44 567.83 67.2 569.47 C67.04 570.6 67.04 570.6 66.87 571.75 C66.11 576.89 66.11 576.89 65 578 C61.98 578.1 58.98 578.13 55.96 578.12 C54.52 578.12 54.52 578.12 53.05 578.12 C49.8 578.12 46.56 578.12 43.31 578.11 C41 578.11 38.68 578.11 36.37 578.11 C30.06 578.11 23.75 578.11 17.45 578.1 C10.86 578.1 4.28 578.09 -2.31 578.09 C-13.36 578.09 -24.42 578.08 -35.48 578.08 C-46.87 578.07 -58.26 578.06 -69.65 578.05 C-70.7 578.05 -70.7 578.05 -71.78 578.05 C-75.3 578.05 -78.82 578.05 -82.34 578.05 C-111.56 578.04 -140.78 578.02 -170 578 C-169.85 575.93 -169.69 573.86 -169.54 571.79 C-169.45 570.63 -169.36 569.48 -169.27 568.29 C-168.94 564.26 -168.42 560.29 -167.81 556.29 C-167.7 555.56 -167.59 554.82 -167.48 554.06 C-167.13 551.77 -166.79 549.48 -166.44 547.19 C-166.2 545.61 -165.96 544.03 -165.73 542.45 C-165.16 538.63 -164.58 534.82 -164 531 C-163.34 531 -162.68 531 -162 531 C-161.96 530.22 -161.92 529.45 -161.88 528.65 C-161.24 517.94 -159.73 507.44 -158.13 496.85 C-157.84 494.93 -157.56 493.02 -157.27 491.11 C-156.68 487.12 -156.08 483.14 -155.48 479.16 C-154.71 474.07 -153.95 468.97 -153.2 463.88 C-152.61 459.94 -152.02 456 -151.43 452.06 C-151.15 450.18 -150.87 448.3 -150.59 446.42 C-150.2 443.8 -149.8 441.18 -149.4 438.56 C-149.29 437.79 -149.18 437.03 -149.06 436.24 C-148.55 432.91 -147.94 429.79 -147.01 426.55 C-145.79 422.26 -145.14 418 -144.5 413.59 C-144.37 412.68 -144.23 411.76 -144.09 410.82 C-143.8 408.84 -143.51 406.86 -143.23 404.88 C-142.77 401.76 -142.31 398.63 -141.85 395.5 C-140.87 388.88 -139.91 382.25 -138.94 375.62 C-137.81 367.93 -136.68 360.23 -135.55 352.53 C-135.09 349.44 -134.65 346.35 -134.2 343.27 C-133.92 341.39 -133.64 339.51 -133.37 337.63 C-133.24 336.77 -133.12 335.9 -132.99 335.01 C-132.11 329.11 -132.11 329.11 -131 328 C-130.68 326.41 -130.41 324.8 -130.17 323.2 C-130.01 322.17 -129.85 321.14 -129.69 320.09 C-129.44 318.41 -129.44 318.41 -129.19 316.7 C-128.93 314.97 -128.93 314.97 -128.66 313.21 C-128.29 310.77 -127.93 308.33 -127.56 305.88 C-127.01 302.17 -126.45 298.47 -125.88 294.76 C-125.53 292.38 -125.17 290.01 -124.81 287.63 C-124.65 286.53 -124.48 285.43 -124.31 284.3 C-119.36 250.97 -119.93 217.8 -140.55 189.79 C-144.23 185.26 -148.78 181.61 -154 179 C-154 178.34 -154 177.68 -154 177 C-154.72 176.72 -155.44 176.44 -156.18 176.15 C-157.95 175.43 -159.69 174.67 -161.41 173.85 C-194.49 158.56 -233.03 165.61 -266 177 C-266 177.66 -266 178.32 -266 179 C-267.04 179.51 -268.08 180.02 -269.15 180.54 C-284.14 187.7 -284.14 187.7 -297 198 C-298.78 199.29 -300.57 200.56 -302.38 201.81 C-306.83 204.97 -310.29 208.25 -313.66 212.53 C-314.32 213.26 -314.32 213.26 -315 214 C-315.66 214 -316.32 214 -317 214 C-317.33 214.99 -317.66 215.98 -318 217 C-319.44 218.69 -319.44 218.69 -321 220 C-321.66 220 -322.32 220 -323 220 C-323.28 220.59 -323.56 221.18 -323.84 221.79 C-324.92 223.85 -326.08 225.56 -327.5 227.4 C-328.24 228.35 -328.24 228.35 -328.99 229.33 C-329.77 230.34 -329.77 230.34 -330.56 231.38 C-339.85 243.63 -347.38 256.11 -354 270 C-354.66 270 -355.32 270 -356 270 C-356.18 270.54 -356.35 271.09 -356.54 271.65 C-358.11 276.42 -359.78 281.14 -361.55 285.84 C-364.81 294.47 -367.66 303.07 -370 312 C-370.66 312 -371.32 312 -372 312 C-372.14 313.01 -372.28 314.03 -372.43 315.07 C-372.95 318.68 -373.54 322.27 -374.16 325.87 C-377.65 346.25 -380.76 366.67 -383.64 387.14 C-383.85 388.64 -383.85 388.64 -384.07 390.18 C-384.34 392.05 -384.6 393.93 -384.86 395.81 C-384.98 396.65 -385.1 397.5 -385.23 398.37 C-385.33 399.1 -385.43 399.83 -385.53 400.58 C-386 403 -386 403 -386.95 406.19 C-388.17 410.61 -388.86 414.98 -389.51 419.52 C-389.65 420.44 -389.79 421.37 -389.93 422.33 C-390.38 425.37 -390.82 428.42 -391.26 431.46 C-391.57 433.58 -391.88 435.7 -392.19 437.82 C-393.01 443.39 -393.82 448.95 -394.63 454.52 C-395.46 460.2 -396.29 465.89 -397.12 471.57 C-398.75 482.71 -400.38 493.86 -402 505 C-402.66 505 -403.32 505 -404 505 C-404.33 509.62 -404.66 514.24 -405 519 C-407.97 538.47 -410.94 557.94 -414 578 C-491.55 578 -569.1 578 -649 578 C-646.68 557.11 -646.68 557.11 -645 547 C-644.34 547 -643.68 547 -643 547 C-643.03 545.87 -643.05 544.75 -643.08 543.59 C-643.07 538.84 -642.46 534.27 -641.75 529.57 C-641.61 528.67 -641.48 527.76 -641.34 526.83 C-640.9 523.85 -640.46 520.88 -640.01 517.9 C-639.7 515.82 -639.39 513.74 -639.08 511.66 C-638.43 507.32 -637.78 502.97 -637.13 498.62 C-636.29 493.06 -635.46 487.49 -634.64 481.93 C-634 477.64 -633.36 473.35 -632.72 469.06 C-632.41 467.01 -632.11 464.96 -631.8 462.9 C-631.38 460.03 -630.95 457.17 -630.51 454.3 C-630.39 453.46 -630.26 452.61 -630.14 451.75 C-629.6 448.24 -628.98 444.94 -628 441.52 C-626.77 437.18 -626.12 432.86 -625.49 428.39 C-625.35 427.46 -625.21 426.52 -625.07 425.55 C-624.62 422.47 -624.18 419.4 -623.74 416.32 C-623.43 414.17 -623.12 412.03 -622.81 409.89 C-621.99 404.27 -621.18 398.64 -620.37 393.02 C-619.54 387.27 -618.71 381.53 -617.88 375.78 C-616.25 364.52 -614.62 353.26 -613 342 C-612.34 342 -611.68 342 -611 342 C-610.96 341.3 -610.92 340.6 -610.88 339.88 C-610.2 329.34 -608.65 318.96 -607.09 308.52 C-606.81 306.56 -606.52 304.61 -606.23 302.66 C-605.63 298.6 -605.03 294.54 -604.43 290.48 C-603.65 285.26 -602.88 280.05 -602.12 274.83 C-601.52 270.81 -600.93 266.8 -600.33 262.78 C-600.05 260.86 -599.77 258.93 -599.48 257.01 C-599.09 254.33 -598.69 251.66 -598.29 248.99 C-598.17 248.19 -598.06 247.39 -597.94 246.56 C-597.11 241.11 -597.11 241.11 -596 240 C-595.72 238.68 -595.51 237.34 -595.31 236.01 C-595.18 235.15 -595.06 234.29 -594.92 233.4 C-594.79 232.45 -594.65 231.5 -594.51 230.52 C-594.36 229.53 -594.22 228.53 -594.07 227.51 C-593.58 224.2 -593.1 220.9 -592.62 217.59 C-592.29 215.3 -591.95 213.02 -591.62 210.73 C-590.73 204.71 -589.86 198.68 -588.98 192.65 C-588.08 186.5 -587.18 180.36 -586.28 174.21 C-584.52 162.14 -582.76 150.07 -581 138 C-580.34 138 -579.68 138 -579 138 C-578.96 137.23 -578.92 136.46 -578.88 135.66 C-578.24 124.8 -576.68 114.14 -575.06 103.38 C-574.77 101.43 -574.48 99.48 -574.19 97.52 C-573.43 92.43 -572.67 87.34 -571.91 82.25 C-571.12 77.03 -570.35 71.81 -569.57 66.6 C-568.05 56.4 -566.53 46.2 -565 36 C-564.34 36 -563.68 36 -563 36 C-562.93 34.78 -562.93 34.78 -562.85 33.54 C-562.74 31.88 -562.74 31.88 -562.62 30.19 C-562.56 29.11 -562.49 28.03 -562.41 26.92 C-561.88 21.91 -560.9 16.96 -560 12 C-482.78 12 -405.56 12 -326 12 C-329.45 39.58 -329.45 39.58 -331.26 51.69 C-331.46 53.02 -331.66 54.35 -331.85 55.69 C-332.36 59.1 -332.87 62.51 -333.38 65.93 C-333.9 69.45 -334.43 72.97 -334.95 76.49 C-335.96 83.33 -336.98 90.16 -338 97 C-338.66 97 -339.32 97 -340 97 C-340.06 97.83 -340.12 98.67 -340.18 99.53 C-340.67 106.04 -341.23 112.52 -342 119 C-341.23 118.01 -341.23 118.01 -340.44 117 C-334.5 109.7 -328.11 102.95 -321.44 96.31 C-320.2 95.07 -320.2 95.07 -318.94 93.8 C-307.12 82 -307.12 82 -304 82 C-303.74 81.4 -303.47 80.79 -303.2 80.17 C-301.95 77.91 -300.87 76.81 -298.85 75.24 C-298.24 74.76 -297.62 74.28 -296.99 73.79 C-296.36 73.3 -295.72 72.81 -295.06 72.31 C-294.43 71.81 -293.8 71.32 -293.14 70.8 C-290.38 68.66 -288.35 67.12 -285 66 C-284.67 65.01 -284.34 64.02 -284 63 C-282.1 61.47 -282.1 61.47 -279.62 59.86 C-278.72 59.26 -277.82 58.67 -276.89 58.05 C-275.93 57.44 -274.98 56.82 -274 56.19 C-273.08 55.58 -272.16 54.98 -271.21 54.36 C-269.36 53.15 -267.51 51.94 -265.66 50.74 C-263.21 49.13 -260.77 47.5 -258.34 45.86 C-254.19 43.08 -249.92 40.56 -245.56 38.12 C-244.86 37.72 -244.15 37.32 -243.42 36.91 C-238.25 34 -238.25 34 -236 34 C-236 33.34 -236 32.68 -236 32 C-216.96 23.21 -216.96 23.21 -213.46 21.6 C-211.19 20.55 -208.92 19.49 -206.65 18.41 C-199.6 15.07 -192.55 12.27 -185.12 9.88 C-184.09 9.54 -183.06 9.2 -182 8.85 C-160.86 2 -160.86 2 -154 2 C-154 1.34 -154 0.68 -154 0 C-102.62 -10.39 -51.25 -11.77 0 0 Z " fill="#FFFFFF" transform="translate(2688,373)"/>
<path d="M0 0 C0 0.66 0 1.32 0 2 C1.21 2.09 2.43 2.18 3.68 2.27 C10.06 2.98 16.06 4.88 22.19 6.75 C23.38 7.11 24.57 7.47 25.8 7.84 C33.96 10.31 42.04 12.94 50 16 C50 16.66 50 17.32 50 18 C51.24 18.38 52.48 18.76 53.76 19.16 C59.69 21.14 65.25 23.79 70.88 26.5 C71.91 26.99 72.94 27.47 74 27.97 C74.99 28.45 75.97 28.92 76.99 29.41 C77.88 29.83 78.77 30.26 79.69 30.7 C81.91 31.95 83.25 33.18 85 35 C86.29 35.86 87.61 36.67 88.95 37.45 C89.71 37.9 90.47 38.35 91.26 38.82 C92.06 39.29 92.86 39.76 93.69 40.25 C95.34 41.24 96.98 42.23 98.62 43.23 C99.36 43.68 100.1 44.13 100.86 44.58 C103.78 46.51 106.36 48.71 108.88 51.13 C111.93 53.82 115.25 56.09 118.56 58.44 C123.45 61.94 127.63 65.35 131.39 70.1 C133.31 72.36 135.43 74.2 137.69 76.12 C141.19 79.16 143.49 82.09 146 86 C147.32 87.43 148.66 88.84 150 90.25 C154.37 95.01 157.98 100.13 161.56 105.5 C162.1 106.3 162.64 107.1 163.19 107.93 C167 113.74 167 113.74 167 116 C167.66 116 168.32 116 169 116 C169.48 116.97 169.97 117.94 170.47 118.94 C170.79 119.58 171.11 120.22 171.44 120.87 C172.16 122.31 172.87 123.75 173.59 125.19 C175.4 128.82 177.22 132.44 179.1 136.03 C185.78 148.86 190.23 162.08 194.31 175.94 C194.57 176.79 194.82 177.64 195.08 178.52 C196.74 184.33 197.59 189.97 198 196 C198.66 196 199.32 196 200 196 C200.48 199.1 200.96 202.21 201.44 205.31 C201.57 206.17 201.71 207.04 201.85 207.92 C203.89 221.31 204.24 234.48 204.25 248 C204.25 248.97 204.25 249.95 204.25 250.95 C204.24 289.44 204.24 289.44 198.89 304.34 C197.72 307.84 196.8 311.39 195.88 314.96 C195.69 315.69 195.5 316.41 195.31 317.16 C194.53 320.17 193.75 323.19 192.98 326.21 C192.41 328.44 191.83 330.67 191.25 332.9 C191.09 333.57 190.92 334.23 190.75 334.91 C189.27 340.58 187.23 345.43 185 351 C34.19 351 -116.62 351 -272 351 C-270 365.6 -270 365.6 -267 380 C-266.34 380.33 -265.68 380.66 -265 381 C-264.17 382.56 -263.39 384.15 -262.62 385.75 C-255.01 399.95 -242.36 410.1 -228 417 C-228 417.66 -228 418.32 -228 419 C-225.97 419.68 -223.95 420.35 -221.92 421.02 C-219.86 421.71 -217.81 422.43 -215.77 423.17 C-200.71 428.5 -185.44 431.16 -169.54 432.41 C-168.7 432.47 -167.86 432.54 -166.99 432.61 C-166.24 432.66 -165.49 432.71 -164.72 432.77 C-163 433 -163 433 -162 434 C-160.23 434.1 -158.46 434.13 -156.69 434.13 C-155.61 434.13 -154.54 434.14 -153.43 434.14 C-152.3 434.13 -151.17 434.13 -150 434.12 C-148.87 434.13 -147.74 434.13 -146.57 434.14 C-145.5 434.14 -144.42 434.13 -143.31 434.13 C-142.32 434.13 -141.32 434.13 -140.3 434.13 C-138.04 434.26 -138.04 434.26 -137 433 C-135.27 432.76 -133.54 432.58 -131.8 432.42 C-111 430.41 -91.37 426.78 -71.54 420.14 C-68 419 -68 419 -66 419 C-66 418.34 -66 417.68 -66 417 C-65.18 416.68 -65.18 416.68 -64.34 416.36 C-50.26 410.96 -50.26 410.96 -36.9 404.03 C-35 403 -35 403 -33 403 C-33 402.34 -33 401.68 -33 401 C-31.38 399.87 -29.7 398.82 -28 397.81 C-22.85 394.64 -18.39 391.14 -14 387 C-8.68 389.01 -4.04 391.82 0.81 394.75 C1.68 395.26 2.54 395.78 3.43 396.3 C8.18 399.16 12.64 402.18 17.02 405.56 C20.45 408.06 24.13 410.1 27.81 412.19 C29.3 413.03 30.79 413.88 32.27 414.73 C32.92 415.1 33.56 415.46 34.23 415.84 C36 417 36 417 37.45 418.45 C39.33 420.33 41.33 421.6 43.58 423 C44.48 423.58 45.39 424.15 46.33 424.73 C47.29 425.34 48.26 425.94 49.25 426.56 C56 430.81 62.71 435.09 69.31 439.56 C74.4 443 79.54 446.19 85 449 C85 449.66 85 450.32 85 451 C85.67 451.24 86.34 451.47 87.03 451.71 C90.76 453.33 94.07 455.39 97.5 457.56 C98.56 458.23 98.56 458.23 99.64 458.91 C104.03 461.69 108.32 464.57 112.56 467.56 C119.48 472.43 126.7 476.73 134 481 C133.69 484.03 132.98 485.02 130.77 487.19 C129.31 488.37 129.31 488.37 127.81 489.56 C127.28 489.99 126.75 490.42 126.2 490.86 C125.06 491.78 123.92 492.69 122.77 493.6 C121.01 494.99 119.26 496.4 117.51 497.82 C111.08 502.98 104.56 507.79 97.62 512.25 C95 513.93 95 513.93 92.77 515.85 C88.8 518.93 84.51 521.39 80.19 523.94 C78.45 524.97 76.72 526 74.98 527.03 C74.13 527.53 73.29 528.03 72.41 528.55 C70.26 529.85 68.13 531.19 66.01 532.55 C61.38 535.46 56.52 537.88 51.62 540.31 C50.72 540.77 49.82 541.22 48.89 541.69 C48.03 542.12 47.17 542.55 46.29 542.99 C45.12 543.57 45.12 543.57 43.94 544.16 C42 545 42 545 40 545 C40 545.66 40 546.32 40 547 C7.21 562 7.21 562 3 562 C3 562.66 3 563.32 3 564 C-1.19 565.49 -5.39 566.99 -9.59 568.48 C-11.01 568.99 -12.43 569.49 -13.85 570 C-21.66 572.78 -29.48 575.54 -37.35 578.13 C-39 578.67 -40.64 579.22 -42.27 579.79 C-58.72 585.51 -76.25 588.85 -93.38 591.94 C-94.54 592.15 -95.7 592.36 -96.9 592.58 C-102.34 593.52 -107.48 594.26 -113 594 C-113 594.66 -113 595.32 -113 596 C-134.25 598.54 -155.23 599.48 -176.62 599.39 C-180.63 599.37 -184.64 599.38 -188.64 599.4 C-204.93 599.46 -221.07 599.09 -237.29 597.54 C-237.98 597.47 -238.68 597.41 -239.4 597.34 C-250.78 596.22 -250.78 596.22 -252 595 C-253.79 594.66 -255.59 594.38 -257.39 594.12 C-272.37 591.86 -287.01 588.99 -301.69 585.25 C-302.48 585.05 -303.28 584.85 -304.1 584.64 C-316.89 581.37 -316.89 581.37 -321 580 C-321 579.34 -321 578.68 -321 578 C-322.24 577.76 -323.48 577.53 -324.75 577.28 C-330.72 575.95 -336.28 573.78 -341.94 571.5 C-343.58 570.84 -343.58 570.84 -345.26 570.16 C-354.25 566.47 -362.67 562.13 -371.01 557.17 C-372.96 556.02 -374.92 554.93 -376.9 553.84 C-382.84 550.57 -388.39 547.16 -393.64 542.86 C-397.59 539.74 -401.81 537.01 -405.98 534.21 C-408.98 532.01 -411.42 529.67 -414 527 C-415.02 526.05 -416.05 525.1 -417.09 524.17 C-423.11 518.72 -428.81 513.26 -434 507 C-435.25 505.58 -436.5 504.16 -437.75 502.75 C-444 495.68 -444 495.68 -444 493 C-444.66 493 -445.32 493 -446 493 C-450.7 487.42 -454.22 480.99 -457.61 474.57 C-458.79 472.39 -460.05 470.37 -461.44 468.31 C-465.05 462.63 -467.49 456.33 -470.09 450.15 C-470.97 448.08 -471.87 446.04 -472.79 443.99 C-485.57 415.08 -489.23 382.91 -489.25 351.56 C-489.25 350.76 -489.25 349.95 -489.25 349.13 C-489.21 320.24 -485.27 291.99 -478.44 263.94 C-478.25 263.17 -478.07 262.4 -477.88 261.61 C-476.64 256.8 -474.98 252.3 -473.09 247.71 C-470.61 241.55 -468.48 235.26 -466.27 229.01 C-464.33 223.59 -462.35 218.25 -460 213 C-459.34 213 -458.68 213 -458 213 C-457.91 212.35 -457.82 211.69 -457.73 211.02 C-456.75 206.99 -455.05 203.47 -453.25 199.75 C-452.89 199 -452.53 198.24 -452.16 197.47 C-449.63 192.2 -446.94 187.06 -444 182 C-443.34 182 -442.68 182 -442 182 C-441.75 181.15 -441.51 180.29 -441.25 179.41 C-439.91 175.75 -438.13 172.67 -436 169.44 C-435.61 168.83 -435.21 168.23 -434.81 167.61 C-431.24 162.21 -427.34 157.11 -423.34 152.03 C-421.25 149.33 -419.3 146.58 -417.38 143.75 C-414.54 139.64 -411.41 135.97 -408.04 132.29 C-405.89 129.88 -403.92 127.37 -401.94 124.81 C-399.12 121.23 -396.25 118.33 -392.71 115.48 C-390.81 113.83 -389.25 112.05 -387.62 110.12 C-384.44 106.37 -380.95 103.16 -377.21 99.96 C-375.64 98.57 -374.12 97.11 -372.64 95.62 C-369.65 92.66 -366.53 89.91 -363.31 87.19 C-362.44 86.43 -362.44 86.43 -361.55 85.67 C-357.24 82 -357.24 82 -355 82 C-354.68 81.13 -354.68 81.13 -354.36 80.25 C-352.5 77.18 -350.21 75.91 -347.19 74 C-344.07 72.02 -341.1 70.08 -338.24 67.75 C-336 66 -336 66 -334 66 C-334 65.34 -334 64.68 -334 64 C-332.12 62.67 -332.12 62.67 -329.5 61.17 C-328.08 60.34 -328.08 60.34 -326.62 59.5 C-325.61 58.92 -324.6 58.34 -323.56 57.75 C-315.39 53.06 -315.39 53.06 -307.49 47.95 C-302.43 44.51 -297.05 41.82 -291.56 39.12 C-290.57 38.63 -289.58 38.13 -288.56 37.62 C-281.27 34 -281.27 34 -279 34 C-279 33.34 -279 32.68 -279 32 C-278.09 31.63 -277.19 31.26 -276.25 30.89 C-272.83 29.5 -269.41 28.11 -265.99 26.72 C-264.52 26.12 -263.05 25.53 -261.58 24.93 C-260.15 24.35 -258.72 23.77 -257.3 23.19 C-255.88 22.62 -254.45 22.04 -253.03 21.47 C-248.94 19.8 -244.87 18.08 -240.81 16.33 C-234.45 13.67 -227.94 11.78 -221.31 9.94 C-220.09 9.59 -218.87 9.25 -217.61 8.9 C-191.73 1.69 -191.73 1.69 -185 2 C-185 1.34 -185 0.68 -185 0 C-123.34 -10.51 -61.57 -11.67 0 0 Z M-159.92 161.27 C-162.02 162.01 -164.13 162.67 -166.25 163.32 C-180.74 167.86 -193.87 173.78 -206 183 C-207.02 183.75 -208.04 184.49 -209.1 185.26 C-214.08 188.93 -218.69 192.55 -223 197 C-223.6 197.56 -224.2 198.11 -224.81 198.69 C-226.22 199.95 -226.22 199.95 -226 202 C-226.66 202 -227.32 202 -228 202 C-237.23 211.8 -246.72 225.15 -251 238 C-172.79 238 -94.58 238 -14 238 C-14 218.41 -15.41 201.18 -28.19 185.75 C-30.69 183.3 -33.23 181.13 -36 179 C-36.74 178.22 -37.49 177.44 -38.25 176.63 C-54.22 161.34 -80.03 155.91 -101.3 155.8 C-102.18 155.79 -103.05 155.79 -103.95 155.78 C-105.8 155.77 -107.65 155.76 -109.5 155.76 C-112.27 155.75 -115.03 155.72 -117.79 155.69 C-132.15 155.6 -146.28 156.49 -159.92 161.27 Z " fill="#FFFFFF" transform="translate(1813,373)"/>
<path d="M0 0 C2.58 0 5.16 0.01 7.73 0.01 C13.78 0.02 19.83 0.03 25.88 0.05 C32.78 0.07 39.67 0.08 46.57 0.09 C60.74 0.12 74.9 0.15 89.06 0.2 C88.91 1.92 88.76 3.65 88.61 5.37 C88.52 6.33 88.44 7.29 88.35 8.28 C87.92 12.69 87.29 17.06 86.62 21.45 C86.44 22.71 86.44 22.71 86.26 24.01 C86.07 25.25 86.07 25.25 85.88 26.52 C85.77 27.25 85.66 27.99 85.55 28.74 C85.06 31.2 85.06 31.2 84.13 34.26 C82.86 38.66 82.21 43.1 81.55 47.62 C81.41 48.54 81.28 49.45 81.14 50.4 C80.69 53.41 80.25 56.43 79.8 59.44 C79.49 61.54 79.18 63.64 78.87 65.73 C78.06 71.24 77.24 76.74 76.44 82.25 C75.61 87.88 74.77 93.5 73.94 99.12 C72.31 110.15 70.68 121.17 69.06 132.2 C68.4 132.2 67.74 132.2 67.06 132.2 C66.73 136.49 66.4 140.78 66.06 145.2 C63.75 160.38 61.44 175.56 59.06 191.2 C119.78 191.2 180.5 191.2 243.06 191.2 C243.06 200.2 243.06 200.2 242.58 203.49 C242.42 204.61 242.42 204.61 242.26 205.76 C242.14 206.55 242.02 207.35 241.9 208.16 C241.78 209.02 241.65 209.88 241.53 210.76 C241.12 213.58 240.7 216.39 240.29 219.2 C240 221.17 239.72 223.13 239.43 225.1 C238.83 229.21 238.23 233.33 237.62 237.44 C236.84 242.7 236.08 247.96 235.31 253.22 C234.72 257.28 234.13 261.34 233.53 265.4 C233.25 267.34 232.96 269.28 232.68 271.22 C232.29 273.93 231.89 276.64 231.48 279.36 C231.37 280.15 231.25 280.95 231.14 281.77 C230.44 286.38 229.38 290.71 228.06 295.2 C227.71 297.11 227.4 299.03 227.13 300.96 C226.98 302.04 226.83 303.13 226.67 304.25 C226.51 305.4 226.35 306.55 226.19 307.73 C225.84 310.2 225.49 312.66 225.14 315.12 C224.6 318.98 224.06 322.84 223.52 326.7 C223 330.44 222.47 334.18 221.94 337.92 C221.78 339.08 221.62 340.23 221.46 341.42 C221.3 342.5 221.15 343.58 220.99 344.69 C220.86 345.63 220.73 346.58 220.59 347.55 C220.06 350.2 220.06 350.2 218.06 355.2 C126.49 355.69 126.49 355.69 33.06 356.2 C29.43 380.95 25.8 405.7 22.06 431.2 C20.58 438.13 20.58 438.13 19.06 445.2 C18.48 448.6 17.93 452 17.44 455.41 C17.3 456.33 17.16 457.25 17.02 458.2 C16.58 461.17 16.14 464.15 15.71 467.12 C15.4 469.21 15.09 471.3 14.78 473.39 C13.97 478.83 13.17 484.28 12.37 489.73 C11.55 495.31 10.72 500.89 9.89 506.46 C8.28 517.37 6.67 528.28 5.06 539.2 C4.4 539.2 3.74 539.2 3.06 539.2 C3.02 539.97 2.99 540.74 2.95 541.54 C2.3 552.32 0.77 562.89 -0.84 573.56 C-1.13 575.49 -1.42 577.41 -1.71 579.34 C-2.31 583.35 -2.91 587.36 -3.51 591.37 C-4.29 596.51 -5.06 601.66 -5.82 606.81 C-6.41 610.77 -7.01 614.74 -7.6 618.71 C-7.89 620.61 -8.17 622.51 -8.45 624.41 C-8.85 627.04 -9.25 629.68 -9.65 632.32 C-9.82 633.5 -9.82 633.5 -10 634.71 C-10.82 640.08 -10.82 640.08 -11.94 641.2 C-12.21 642.52 -12.43 643.85 -12.63 645.19 C-12.75 646.05 -12.88 646.91 -13.01 647.79 C-13.15 648.74 -13.29 649.69 -13.43 650.67 C-13.57 651.67 -13.72 652.66 -13.87 653.69 C-14.36 656.99 -14.84 660.3 -15.32 663.61 C-15.65 665.89 -15.99 668.18 -16.32 670.46 C-17.2 676.49 -18.08 682.52 -18.96 688.55 C-19.85 694.69 -20.75 700.84 -21.65 706.99 C-23.42 719.06 -25.18 731.13 -26.94 743.2 C-27.6 743.2 -28.26 743.2 -28.94 743.2 C-29 744.05 -29.06 744.91 -29.12 745.79 C-30.35 762.61 -30.35 762.61 -31.94 764.2 C-33.56 764.3 -35.18 764.33 -36.8 764.34 C-38.36 764.35 -38.36 764.35 -39.95 764.36 C-41.66 764.36 -41.66 764.36 -43.4 764.36 C-44.57 764.37 -45.75 764.37 -46.96 764.37 C-49.46 764.38 -51.96 764.38 -54.47 764.38 C-58.23 764.38 -62 764.4 -65.77 764.42 C-83.73 764.46 -101.14 763.88 -118.62 759.45 C-119.68 759.18 -120.73 758.92 -121.82 758.65 C-132.56 755.91 -143.67 752.92 -152.89 746.54 C-155.64 744.74 -158.52 743.28 -161.44 741.76 C-166.69 738.95 -171.34 735.96 -175.94 732.2 C-176.81 731.49 -177.69 730.79 -178.59 730.07 C-181.39 727.8 -184.17 725.5 -186.94 723.2 C-187.67 722.58 -188.41 721.97 -189.17 721.34 C-193.23 717.9 -196.8 714.27 -200.23 710.2 C-201.32 708.92 -202.43 707.66 -203.58 706.44 C-207.62 702.07 -211 697.37 -214.31 692.45 C-214.75 691.79 -215.2 691.14 -215.65 690.47 C-217.68 687.4 -219.19 684.79 -219.94 681.2 C-220.6 681.2 -221.26 681.2 -221.94 681.2 C-226.32 672.41 -230.35 663.65 -233.44 654.32 C-233.69 653.55 -233.95 652.79 -234.21 652 C-235.18 648.96 -235.94 646.41 -235.94 643.2 C-236.6 643.2 -237.26 643.2 -237.94 643.2 C-238.59 639.57 -239.23 635.95 -239.88 632.32 C-240.15 630.8 -240.15 630.8 -240.43 629.25 C-244.31 607.21 -242.91 586.29 -239.94 564.2 C-239.77 562.95 -239.77 562.95 -239.6 561.68 C-239.08 557.85 -238.53 554.02 -237.94 550.2 C-237.28 550.2 -236.62 550.2 -235.94 550.2 C-235.9 549.42 -235.86 548.65 -235.82 547.85 C-235.18 537.07 -233.64 526.5 -232.03 515.83 C-231.74 513.9 -231.46 511.98 -231.17 510.05 C-230.57 506.04 -229.97 502.03 -229.36 498.02 C-228.59 492.88 -227.82 487.73 -227.05 482.58 C-226.46 478.62 -225.87 474.65 -225.27 470.68 C-224.99 468.79 -224.7 466.89 -224.42 464.99 C-224.03 462.35 -223.63 459.71 -223.23 457.07 C-223.11 456.29 -223 455.5 -222.88 454.69 C-222.05 449.31 -222.05 449.31 -220.94 448.2 C-220.46 445.49 -220.04 442.8 -219.65 440.08 C-219.52 439.23 -219.4 438.38 -219.27 437.51 C-218.85 434.68 -218.44 431.85 -218.03 429.02 C-217.74 427.06 -217.46 425.1 -217.17 423.14 C-216.41 417.97 -215.65 412.8 -214.9 407.62 C-213.7 399.36 -212.48 391.09 -211.27 382.82 C-210.85 379.93 -210.43 377.04 -210.01 374.15 C-209.75 372.38 -209.49 370.6 -209.23 368.83 C-209.11 368.02 -209 367.22 -208.88 366.39 C-208.32 362.63 -207.68 358.93 -206.94 355.2 C-263.7 355.2 -320.46 355.2 -378.94 355.2 C-377.79 339.11 -377.79 339.11 -376.75 332.19 C-376.64 331.4 -376.53 330.61 -376.41 329.79 C-376.04 327.24 -375.66 324.69 -375.29 322.14 C-375.02 320.34 -374.76 318.53 -374.5 316.73 C-373.95 312.98 -373.4 309.24 -372.84 305.49 C-372.14 300.7 -371.44 295.91 -370.74 291.12 C-370.2 287.41 -369.66 283.7 -369.11 279.99 C-368.86 278.23 -368.6 276.46 -368.34 274.69 C-367.98 272.23 -367.62 269.76 -367.25 267.3 C-367.15 266.58 -367.04 265.86 -366.94 265.11 C-366.26 260.61 -365.21 256.64 -363.94 252.2 C-360.97 232.07 -358 211.94 -354.94 191.2 C-297.19 191.2 -239.44 191.2 -179.94 191.2 C-179.94 188.56 -179.94 185.92 -179.94 183.2 C-179.8 181.69 -179.63 180.19 -179.4 178.69 C-179.29 177.91 -179.17 177.13 -179.05 176.32 C-178.92 175.5 -178.79 174.68 -178.66 173.84 C-178.53 172.98 -178.4 172.11 -178.26 171.22 C-177.85 168.48 -177.42 165.74 -177 163.01 C-176.72 161.16 -176.44 159.31 -176.16 157.46 C-172.56 133.84 -167.61 110.16 -157.94 88.2 C-157.28 88.2 -156.62 88.2 -155.94 88.2 C-155.7 87.36 -155.45 86.52 -155.2 85.66 C-153.76 81.71 -151.87 78.34 -149.69 74.76 C-149.28 74.09 -148.88 73.42 -148.46 72.74 C-146.08 68.87 -143.64 65.27 -140.53 61.94 C-138.37 59.58 -136.43 57.07 -134.44 54.57 C-131.17 50.56 -128.01 47.34 -123.94 44.2 C-122.82 43.05 -122.82 43.05 -121.69 41.88 C-117.7 37.99 -113.33 34.61 -108.94 31.2 C-107.86 30.33 -107.86 30.33 -106.75 29.45 C-104.94 28.2 -104.94 28.2 -102.94 28.2 C-102.61 27.21 -102.28 26.22 -101.94 25.2 C-99.72 23.79 -97.58 22.57 -95.25 21.38 C-94.24 20.86 -94.24 20.86 -93.22 20.32 C-87.7 17.49 -82.08 14.99 -76.35 12.62 C-74.51 11.85 -72.68 11.07 -70.88 10.23 C-65.32 7.63 -59.85 5.94 -53.88 4.57 C-53.05 4.37 -52.22 4.16 -51.37 3.95 C-34.29 -0.06 -17.44 -0.07 0 0 Z " fill="#FFFFFF" transform="translate(403.9375,186.8046875)"/>
<path d="M0 0 C1.39 0 1.39 0 2.8 0.01 C24.48 0.08 44.47 2.84 65.44 8.31 C65.44 8.97 65.44 9.63 65.44 10.31 C66.21 10.39 66.99 10.46 67.79 10.54 C72.78 11.6 77.21 13.58 81.88 15.62 C83.25 16.21 83.25 16.21 84.65 16.81 C89.78 19.03 94.64 21.43 99.44 24.31 C99.44 24.97 99.44 25.63 99.44 26.31 C100.51 26.7 100.51 26.7 101.61 27.09 C121.04 35.5 138.79 57.6 147.73 76.46 C148.44 78.31 148.44 78.31 148.44 80.31 C149.1 80.31 149.76 80.31 150.44 80.31 C176.17 141.94 178.1 209.9 166.44 275.31 C166.11 275.97 165.78 276.63 165.44 277.31 C165.48 278.01 165.52 278.71 165.56 279.44 C165.44 282.31 165.44 282.31 162.44 290.31 C85.55 290.31 8.66 290.31 -70.56 290.31 C-69.56 275.31 -69.56 275.31 -69.02 270.25 C-66.24 243.8 -67.32 215.41 -83.56 193.31 C-84.13 192.76 -84.69 192.2 -85.27 191.63 C-86.56 190.31 -86.56 190.31 -86.56 188.31 C-87.55 187.98 -88.54 187.65 -89.56 187.31 C-90.22 186.57 -90.88 185.83 -91.56 185.06 C-99.3 177.07 -113.22 174.29 -123.89 173.91 C-126.05 173.9 -128.22 173.91 -130.38 173.94 C-132.09 173.95 -132.09 173.95 -133.83 173.97 C-150.2 174.27 -166.97 177.75 -180.56 187.31 C-182.35 188.44 -184.14 189.57 -185.94 190.69 C-192.75 195.02 -198.98 199.44 -204.56 205.31 C-205.08 205.81 -205.6 206.31 -206.14 206.83 C-211.11 211.62 -215.37 216.84 -219.56 222.31 C-220.25 223.2 -220.93 224.09 -221.64 225.01 C-227.15 232.37 -231.48 240.1 -235.56 248.31 C-236.22 248.31 -236.88 248.31 -237.56 248.31 C-237.66 249 -237.76 249.69 -237.87 250.39 C-238.7 253.89 -240.1 256.77 -241.69 260 C-256.57 291.14 -263.23 324.26 -267.56 358.31 C-268.22 358.31 -268.88 358.31 -269.56 358.31 C-269.62 359.5 -269.62 359.5 -269.69 360.71 C-270.31 371.02 -271.72 381.15 -273.25 391.36 C-273.52 393.16 -273.78 394.95 -274.05 396.74 C-274.6 400.47 -275.15 404.2 -275.71 407.92 C-276.43 412.7 -277.13 417.49 -277.84 422.27 C-278.38 425.96 -278.93 429.65 -279.48 433.34 C-279.74 435.1 -280 436.87 -280.26 438.63 C-280.63 441.09 -280.99 443.54 -281.36 445.99 C-281.52 447.08 -281.52 447.08 -281.69 448.2 C-282.45 453.2 -282.45 453.2 -283.56 454.31 C-283.56 455.14 -283.56 455.96 -283.56 456.81 C-283.56 457.64 -283.56 458.46 -283.56 459.31 C-283.89 459.64 -284.22 459.97 -284.56 460.31 C-285.1 463.4 -285.58 466.48 -286.02 469.59 C-286.16 470.56 -286.31 471.53 -286.46 472.54 C-286.77 474.66 -287.08 476.79 -287.39 478.91 C-287.87 482.27 -288.37 485.63 -288.86 489 C-290.09 497.35 -291.31 505.71 -292.53 514.07 C-293.56 521.12 -294.59 528.17 -295.63 535.22 C-296.11 538.53 -296.59 541.84 -297.07 545.15 C-297.37 547.18 -297.67 549.22 -297.97 551.26 C-298.11 552.18 -298.24 553.1 -298.37 554.04 C-298.5 554.9 -298.63 555.76 -298.76 556.64 C-298.92 557.75 -298.92 557.75 -299.08 558.88 C-299.71 562.07 -300.67 565.19 -301.56 568.31 C-303.05 577.22 -303.05 577.22 -304.56 586.31 C-381.78 586.31 -459 586.31 -538.56 586.31 C-535.11 559.88 -535.11 559.88 -533.3 547.5 C-533.1 546.15 -532.91 544.79 -532.71 543.43 C-532.2 539.95 -531.69 536.47 -531.18 532.99 C-530.66 529.4 -530.14 525.82 -529.62 522.23 C-528.6 515.26 -527.58 508.28 -526.56 501.31 C-525.9 501.31 -525.24 501.31 -524.56 501.31 C-524.5 500.15 -524.5 500.15 -524.45 498.96 C-523.81 488.23 -522.27 477.71 -520.66 467.09 C-520.37 465.17 -520.08 463.25 -519.79 461.33 C-519.19 457.34 -518.59 453.35 -517.99 449.36 C-517.21 444.25 -516.44 439.14 -515.68 434.03 C-514.94 429.13 -514.21 424.24 -513.47 419.34 C-513.33 418.41 -513.19 417.48 -513.05 416.53 C-512.65 413.9 -512.25 411.27 -511.85 408.64 C-511.74 407.87 -511.62 407.1 -511.5 406.3 C-510.94 402.62 -510.32 398.96 -509.56 395.31 C-507.45 384.59 -505.68 373.86 -504.11 363.05 C-503.74 360.45 -503.36 357.85 -502.98 355.24 C-501.9 347.86 -500.82 340.48 -499.75 333.1 C-499.09 328.55 -498.42 323.99 -497.76 319.44 C-497.51 317.73 -497.26 316.02 -497.01 314.3 C-495.9 306.63 -494.78 299.01 -493.08 291.44 C-491.24 283.21 -490.08 274.91 -488.9 266.56 C-488.49 263.66 -488.07 260.75 -487.65 257.85 C-486.61 250.64 -485.58 243.44 -484.55 236.23 C-483.68 230.11 -482.8 223.99 -481.91 217.88 C-481.5 215.02 -481.1 212.17 -480.69 209.32 C-480.44 207.56 -480.19 205.81 -479.94 204.05 C-479.83 203.27 -479.72 202.48 -479.6 201.68 C-479.11 198.3 -478.52 195.15 -477.57 191.86 C-476.34 187.54 -475.7 183.25 -475.07 178.81 C-474.86 177.42 -474.86 177.42 -474.66 176.01 C-474.37 174.01 -474.08 172.01 -473.79 170.01 C-473.33 166.85 -472.88 163.69 -472.41 160.53 C-471.44 153.83 -470.47 147.14 -469.5 140.44 C-468.37 132.66 -467.25 124.87 -466.11 117.09 C-465.66 113.97 -465.21 110.85 -464.76 107.73 C-464.48 105.83 -464.21 103.93 -463.93 102.04 C-463.81 101.16 -463.68 100.29 -463.55 99.39 C-462.68 93.43 -462.68 93.43 -461.56 92.31 C-461.58 91.61 -461.6 90.91 -461.62 90.19 C-461.56 87.31 -461.56 87.31 -459.56 80.31 C-456.59 60.51 -453.62 40.71 -450.56 20.31 C-373.01 20.31 -295.46 20.31 -215.56 20.31 C-217.73 39.85 -217.73 39.85 -219.07 45.22 C-221.26 54.48 -222.31 64.1 -223.73 73.5 C-223.93 74.82 -224.12 76.15 -224.32 77.47 C-224.74 80.21 -225.15 82.95 -225.56 85.69 C-226.09 89.2 -226.62 92.71 -227.15 96.22 C-227.65 99.58 -228.16 102.95 -228.66 106.32 C-228.85 107.58 -229.05 108.84 -229.24 110.13 C-229.5 111.88 -229.5 111.88 -229.77 113.65 C-229.92 114.68 -230.08 115.7 -230.23 116.75 C-230.63 119.38 -230.63 119.38 -230.56 122.31 C-230.12 121.72 -229.67 121.13 -229.21 120.52 C-228.6 119.73 -228 118.94 -227.38 118.12 C-226.78 117.35 -226.19 116.57 -225.58 115.77 C-223.39 113.1 -221.02 110.74 -218.56 108.31 C-216.76 106.34 -214.97 104.36 -213.19 102.38 C-209.69 98.51 -206.14 94.93 -202.09 91.66 C-200.46 90.22 -199.17 88.69 -197.81 87 C-194.45 82.91 -190.4 79.78 -186.25 76.52 C-183.52 74.36 -183.52 74.36 -181.15 71.85 C-178.21 68.96 -175.08 66.7 -171.69 64.38 C-168.03 61.86 -164.52 59.32 -161.2 56.36 C-157.19 52.87 -152.8 50.17 -148.25 47.44 C-147.03 46.69 -147.03 46.69 -145.79 45.93 C-139.83 42.31 -139.83 42.31 -137.56 42.31 C-137.56 41.65 -137.56 40.99 -137.56 40.31 C-133.94 38.43 -130.31 36.54 -126.69 34.66 C-125.46 34.02 -124.23 33.38 -123 32.75 C-118.86 30.59 -114.71 28.45 -110.56 26.31 C-109.51 25.77 -108.47 25.22 -107.39 24.66 C-100.88 21.32 -94.34 18.55 -87.44 16.12 C-86.53 15.8 -85.61 15.47 -84.68 15.13 C-79.48 13.27 -74.26 11.58 -68.97 10.04 C-66.64 9.34 -64.36 8.56 -62.07 7.75 C-57.28 6.14 -52.46 5.16 -47.5 4.25 C-46.67 4.09 -45.85 3.93 -44.99 3.76 C-29.92 0.94 -15.3 -0.06 0 0 Z " fill="#FFFFFF" transform="translate(1141.5625,364.6875)"/>
<path d="M0 0 C0.83 0.08 1.66 0.16 2.51 0.24 C7.01 0.72 10.91 1.59 15.19 3.12 C16.54 3.48 17.9 3.81 19.26 4.13 C41.13 9.37 63.5 18.34 79.19 35.12 C80.32 36.23 81.46 37.33 82.6 38.43 C83.82 39.62 85.03 40.81 86.25 42 C86.86 42.59 87.47 43.17 88.1 43.78 C92.02 47.63 94.63 51.27 97.19 56.12 C98.3 57.82 99.43 59.51 100.56 61.19 C117.34 87.6 118.21 120.03 111.59 149.83 C108.65 162.08 104.49 173.22 98.19 184.12 C97.79 184.81 97.39 185.5 96.98 186.22 C92.09 194.59 86.92 202.1 80.19 209.12 C78.99 210.52 77.81 211.91 76.62 213.31 C73.85 216.51 70.87 219.25 67.57 221.9 C66.05 223.1 66.05 223.1 65.19 225.12 C64.53 225.12 63.87 225.12 63.19 225.12 C62.94 225.72 62.7 226.31 62.44 226.92 C60.98 229.49 59.51 230.67 57.12 232.4 C56.3 233 55.49 233.59 54.65 234.21 C53.37 235.13 53.37 235.13 52.06 236.06 C51.23 236.67 50.4 237.28 49.55 237.9 C41.84 243.51 33.91 248.41 25.5 252.88 C24.77 253.27 24.03 253.67 23.28 254.08 C19.6 256.04 16.39 257.63 12.19 258.12 C12.19 258.79 12.19 259.44 12.19 260.12 C-8.77 267.52 -29.52 274.21 -51.93 274.33 C-52.79 274.33 -53.64 274.34 -54.52 274.35 C-56.33 274.35 -58.14 274.36 -59.94 274.37 C-62.65 274.37 -65.35 274.41 -68.05 274.44 C-83.19 274.53 -97.71 272.88 -112.19 268.25 C-113.01 267.99 -113.84 267.74 -114.69 267.48 C-121.24 265.41 -127.57 262.99 -133.81 260.12 C-133.81 259.46 -133.81 258.81 -133.81 258.12 C-134.51 257.87 -135.21 257.61 -135.93 257.35 C-145.88 253.13 -154.13 246.6 -161.81 239.12 C-162.78 238.23 -163.75 237.34 -164.75 236.41 C-174.53 227.22 -183.55 216.41 -186.81 203.12 C-187.47 203.12 -188.13 203.12 -188.81 203.12 C-189.78 200.21 -190.74 197.29 -191.69 194.38 C-191.96 193.57 -192.23 192.76 -192.5 191.93 C-196.04 180.99 -197.2 170.28 -197.19 158.81 C-197.19 157.6 -197.18 156.39 -197.18 155.14 C-196.97 139.07 -194.28 123.26 -188.81 108.12 C-188.15 108.12 -187.49 108.12 -186.81 108.12 C-186.68 107.39 -186.54 106.65 -186.4 105.89 C-183.17 90.7 -172.23 77.08 -162.81 65.12 C-161.76 63.72 -161.76 63.72 -160.68 62.29 C-160.06 61.58 -159.45 60.86 -158.81 60.12 C-158.15 60.12 -157.49 60.12 -156.81 60.12 C-156.57 59.55 -156.32 58.97 -156.06 58.38 C-154.63 55.8 -153.03 54.06 -150.81 52.12 C-150.15 52.12 -149.49 52.12 -148.81 52.12 C-148.54 51.52 -148.28 50.92 -148 50.3 C-146.79 48.08 -145.75 46.96 -143.81 45.38 C-143.19 44.86 -142.57 44.35 -141.93 43.83 C-141.23 43.27 -140.53 42.7 -139.81 42.12 C-139.03 41.48 -138.25 40.84 -137.45 40.17 C-129.35 33.57 -121.08 28.16 -111.88 23.25 C-110.74 22.64 -110.74 22.64 -109.58 22.02 C-108.86 21.64 -108.15 21.27 -107.41 20.88 C-106.77 20.54 -106.12 20.21 -105.46 19.86 C-103.81 19.12 -103.81 19.12 -101.81 19.12 C-101.81 18.47 -101.81 17.8 -101.81 17.12 C-87.76 11.51 -73.92 6.71 -59.09 3.61 C-57 3.17 -54.93 2.69 -52.85 2.2 C-35.54 -1.82 -17.62 -1.7 0 0 Z " fill="#FFFFFF" transform="translate(3819.8125,676.875)"/>
</svg>
